#Comment line ignore any data following # character 
#Hierarchical Translation and Rotation (.htr) file 
[Header]	
#Header keywords are followed by a single value 
FileType HTR		#Single word string
DataType HTRS		#Translation followed by rotation and scale data
FileVersion 1		#integer
NumSegments 84		#integer
NumFrames 2		#integer
DataFrameRate 30		#integer, data frame rate in this file
EulerRotationOrder ZYX
CalibrationUnits mm
RotationUnits Degrees
GlobalAxisofGravity Y
BoneLengthAxis Y
ScaleFactor 1.00
[SegmentNames&Hierarchy]
#CHILD	PARENT
MASTER GLOBAL
root MASTER
chest root
L_mid_tent01 root
R_mid_tent01 root
spine01 root
Bip01_Neck chest
L_humerus chest
R_humerus chest
weapon_bone chest
Bip01_Head Bip01_Neck
eye_left_bone Bip01_Head
eye_right_bone Bip01_Head
L_forearm L_humerus
L_front_hand L_forearm
L_weapon_bone L_forearm
L_front_hand01_01 L_front_hand
L_front_hand02_01 L_front_hand
L_front_hand03_01 L_front_hand
L_front_hand01_02 L_front_hand01_01
L_front_hand02_02 L_front_hand02_01
L_front_hand03_02 L_front_hand03_01
R_forearm R_humerus
R_front_hand R_forearm
R_weapon_bone R_forearm
R_front_hand01_01 R_front_hand
R_front_hand02_01 R_front_hand
R_front_hand03_01 R_front_hand
R_front_hand01_02 R_front_hand01_01
R_front_hand02_02 R_front_hand02_01
R_front_hand03_02 R_front_hand03_01
null_rope01_connect L_mid_tent01
Rope1_Seg01 null_rope01_connect
Rope1_Seg02 Rope1_Seg01
Rope1_Seg03 Rope1_Seg02
Rope1_Seg04 Rope1_Seg03
Rope1_Seg05 Rope1_Seg04
Rope1_Seg06 Rope1_Seg05
Rope1_Seg07 Rope1_Seg06
Rope1_Seg09 Rope1_Seg07
L_mid_hand01 Rope1_Seg09
L_mid_hand02 Rope1_Seg09
L_mid_hand03 Rope1_Seg09
null_rope02_connect R_mid_tent01
Rope2_Seg01 null_rope02_connect
Rope2_Seg02 Rope2_Seg01
Rope2_Seg03 Rope2_Seg02
Rope2_Seg04 Rope2_Seg03
Rope2_Seg05 Rope2_Seg04
Rope2_Seg06 Rope2_Seg05
Rope2_Seg07 Rope2_Seg06
Rope2_Seg09 Rope2_Seg07
R_mid_hand01 Rope2_Seg09
R_mid_hand02 Rope2_Seg09
R_mid_hand03 Rope2_Seg09
spine02 spine01
spine03 spine02
pelvis spine03
null_rope03_connect pelvis
null_rope04_connect pelvis
Rope3_Seg01 null_rope03_connect
Rope3_Seg02 Rope3_Seg01
Rope3_Seg03 Rope3_Seg02
Rope3_Seg04 Rope3_Seg03
Rope3_Seg05 Rope3_Seg04
Rope3_Seg06 Rope3_Seg05
Rope3_Seg07 Rope3_Seg06
Rope3_Seg08 Rope3_Seg07
Rope3_Seg09 Rope3_Seg08
R_rear_hand01 Rope3_Seg09
R_rear_hand02 Rope3_Seg09
R_rear_hand03 Rope3_Seg09
Rope4_Seg01 null_rope04_connect
Rope4_Seg02 Rope4_Seg01
Rope4_Seg03 Rope4_Seg02
Rope4_Seg04 Rope4_Seg03
Rope4_Seg05 Rope4_Seg04
Rope4_Seg06 Rope4_Seg05
Rope4_Seg07 Rope4_Seg06
Rope4_Seg08 Rope4_Seg07
Rope4_Seg09 Rope4_Seg08
L_rear_hand01 Rope4_Seg09
L_rear_hand02 Rope4_Seg09
L_rear_hand03 Rope4_Seg09
[BasePosition]
#SegmentName Tx, Ty, Tz, Rx, Ry, Rz, BoneLength
MASTER 0.000000 0.000000 0.000000 -90.000000 0.000000 0.000000 10.000000 
root 0.000000 0.000000 0.000000 0.000000 0.000000 0.000000 10.000000 
chest 0.000000 0.000000 0.000000 0.000000 0.000000 0.000000 10.000000 
L_mid_tent01 0.000000 0.000000 0.000000 0.000000 0.000000 0.000000 10.000000 
R_mid_tent01 0.000000 0.000000 0.000000 0.000000 0.000000 0.000000 10.000000 
spine01 0.000000 0.000000 0.000000 0.000000 0.000000 0.000000 10.000000 
Bip01_Neck 0.000000 0.000000 0.000000 0.000000 0.000000 0.000000 10.000000 
L_humerus 0.000000 0.000000 0.000000 0.000000 0.000000 0.000000 10.000000 
R_humerus 0.000000 0.000000 0.000000 0.000000 0.000000 0.000000 10.000000 
weapon_bone 0.000000 0.000000 0.000000 0.000000 0.000000 0.000000 10.000000 
Bip01_Head 0.000000 0.000000 0.000000 0.000000 0.000000 0.000000 10.000000 
eye_left_bone 0.000000 0.000000 0.000000 0.000000 0.000000 0.000000 10.000000 
eye_right_bone 0.000000 0.000000 0.000000 0.000000 0.000000 0.000000 10.000000 
L_forearm 0.000000 0.000000 0.000000 0.000000 0.000000 0.000000 10.000000 
L_front_hand 0.000000 0.000000 0.000000 0.000000 0.000000 0.000000 10.000000 
L_weapon_bone 0.000000 0.000000 0.000000 0.000000 0.000000 0.000000 10.000000 
L_front_hand01_01 0.000000 0.000000 0.000000 0.000000 0.000000 0.000000 10.000000 
L_front_hand02_01 0.000000 0.000000 0.000000 0.000000 0.000000 0.000000 10.000000 
L_front_hand03_01 0.000000 0.000000 0.000000 0.000000 0.000000 0.000000 10.000000 
L_front_hand01_02 0.000000 0.000000 0.000000 0.000000 0.000000 0.000000 10.000000 
L_front_hand02_02 0.000000 0.000000 0.000000 0.000000 0.000000 0.000000 10.000000 
L_front_hand03_02 0.000000 0.000000 0.000000 0.000000 0.000000 0.000000 10.000000 
R_forearm 0.000000 0.000000 0.000000 0.000000 0.000000 0.000000 10.000000 
R_front_hand 0.000000 0.000000 0.000000 0.000000 0.000000 0.000000 10.000000 
R_weapon_bone 0.000000 0.000000 0.000000 0.000000 0.000000 0.000000 10.000000 
R_front_hand01_01 0.000000 0.000000 0.000000 0.000000 0.000000 0.000000 10.000000 
R_front_hand02_01 0.000000 0.000000 0.000000 0.000000 0.000000 0.000000 10.000000 
R_front_hand03_01 0.000000 0.000000 0.000000 0.000000 0.000000 0.000000 10.000000 
R_front_hand01_02 0.000000 0.000000 0.000000 0.000000 0.000000 0.000000 10.000000 
R_front_hand02_02 0.000000 0.000000 0.000000 0.000000 0.000000 0.000000 10.000000 
R_front_hand03_02 0.000000 0.000000 0.000000 0.000000 0.000000 0.000000 10.000000 
null_rope01_connect 0.000000 0.000000 0.000000 0.000000 0.000000 0.000000 10.000000 
Rope1_Seg01 0.000000 0.000000 0.000000 0.000000 0.000000 0.000000 10.000000 
Rope1_Seg02 0.000000 0.000000 0.000000 0.000000 0.000000 0.000000 10.000000 
Rope1_Seg03 0.000000 0.000000 0.000000 0.000000 0.000000 0.000000 10.000000 
Rope1_Seg04 0.000000 0.000000 0.000000 0.000000 0.000000 0.000000 10.000000 
Rope1_Seg05 0.000000 0.000000 0.000000 0.000000 0.000000 0.000000 10.000000 
Rope1_Seg06 0.000000 0.000000 0.000000 0.000000 0.000000 0.000000 10.000000 
Rope1_Seg07 0.000000 0.000000 0.000000 0.000000 0.000000 0.000000 10.000000 
Rope1_Seg09 0.000000 0.000000 0.000000 0.000000 0.000000 0.000000 10.000000 
L_mid_hand01 0.000000 0.000000 0.000000 0.000000 0.000000 0.000000 10.000000 
L_mid_hand02 0.000000 0.000000 0.000000 0.000000 0.000000 0.000000 10.000000 
L_mid_hand03 0.000000 0.000000 0.000000 0.000000 0.000000 0.000000 10.000000 
null_rope02_connect 0.000000 0.000000 0.000000 0.000000 0.000000 0.000000 10.000000 
Rope2_Seg01 0.000000 0.000000 0.000000 0.000000 0.000000 0.000000 10.000000 
Rope2_Seg02 0.000000 0.000000 0.000000 0.000000 0.000000 0.000000 10.000000 
Rope2_Seg03 0.000000 0.000000 0.000000 0.000000 0.000000 0.000000 10.000000 
Rope2_Seg04 0.000000 0.000000 0.000000 0.000000 0.000000 0.000000 10.000000 
Rope2_Seg05 0.000000 0.000000 0.000000 0.000000 0.000000 0.000000 10.000000 
Rope2_Seg06 0.000000 0.000000 0.000000 0.000000 0.000000 0.000000 10.000000 
Rope2_Seg07 0.000000 0.000000 0.000000 0.000000 0.000000 0.000000 10.000000 
Rope2_Seg09 0.000000 0.000000 0.000000 0.000000 0.000000 0.000000 10.000000 
R_mid_hand01 0.000000 0.000000 0.000000 0.000000 0.000000 0.000000 10.000000 
R_mid_hand02 0.000000 0.000000 0.000000 0.000000 0.000000 0.000000 10.000000 
R_mid_hand03 0.000000 0.000000 0.000000 0.000000 0.000000 0.000000 10.000000 
spine02 0.000000 0.000000 0.000000 0.000000 0.000000 0.000000 10.000000 
spine03 0.000000 0.000000 0.000000 0.000000 0.000000 0.000000 10.000000 
pelvis 0.000000 0.000000 0.000000 0.000000 0.000000 0.000000 10.000000 
null_rope03_connect 0.000000 0.000000 0.000000 0.000000 0.000000 0.000000 10.000000 
null_rope04_connect 0.000000 0.000000 0.000000 0.000000 0.000000 0.000000 10.000000 
Rope3_Seg01 0.000000 0.000000 0.000000 0.000000 0.000000 0.000000 10.000000 
Rope3_Seg02 0.000000 0.000000 0.000000 0.000000 0.000000 0.000000 10.000000 
Rope3_Seg03 0.000000 0.000000 0.000000 0.000000 0.000000 0.000000 10.000000 
Rope3_Seg04 0.000000 0.000000 0.000000 0.000000 0.000000 0.000000 10.000000 
Rope3_Seg05 0.000000 0.000000 0.000000 0.000000 0.000000 0.000000 10.000000 
Rope3_Seg06 0.000000 0.000000 0.000000 0.000000 0.000000 0.000000 10.000000 
Rope3_Seg07 0.000000 0.000000 0.000000 0.000000 0.000000 0.000000 10.000000 
Rope3_Seg08 0.000000 0.000000 0.000000 0.000000 0.000000 0.000000 10.000000 
Rope3_Seg09 0.000000 0.000000 0.000000 0.000000 0.000000 0.000000 10.000000 
R_rear_hand01 0.000000 0.000000 0.000000 0.000000 0.000000 0.000000 10.000000 
R_rear_hand02 0.000000 0.000000 0.000000 0.000000 0.000000 0.000000 10.000000 
R_rear_hand03 0.000000 0.000000 0.000000 0.000000 0.000000 0.000000 10.000000 
Rope4_Seg01 0.000000 0.000000 0.000000 0.000000 0.000000 0.000000 10.000000 
Rope4_Seg02 0.000000 0.000000 0.000000 0.000000 0.000000 0.000000 10.000000 
Rope4_Seg03 0.000000 0.000000 0.000000 0.000000 0.000000 0.000000 10.000000 
Rope4_Seg04 0.000000 0.000000 0.000000 0.000000 0.000000 0.000000 10.000000 
Rope4_Seg05 0.000000 0.000000 0.000000 0.000000 0.000000 0.000000 10.000000 
Rope4_Seg06 0.000000 0.000000 0.000000 0.000000 0.000000 0.000000 10.000000 
Rope4_Seg07 0.000000 0.000000 0.000000 0.000000 0.000000 0.000000 10.000000 
Rope4_Seg08 0.000000 0.000000 0.000000 0.000000 0.000000 0.000000 10.000000 
Rope4_Seg09 0.000000 0.000000 0.000000 0.000000 0.000000 0.000000 10.000000 
L_rear_hand01 0.000000 0.000000 0.000000 0.000000 0.000000 0.000000 10.000000 
L_rear_hand02 0.000000 0.000000 0.000000 0.000000 0.000000 0.000000 10.000000 
L_rear_hand03 0.000000 0.000000 0.000000 0.000000 0.000000 0.000000 10.000000 
#Beginning of Data. Separated by tabs
#Fr	Tx	Ty	Tz	Rx	Ry	Rz	SF
[MASTER]
18 -133.721619 2111.419678 1158.159058 0.001660 0.001660 0.001660 2411.909424
19 -131.075470 2171.083984 1070.594482 0.001660 0.001660 0.001660 2424.243896
[root]
18 -5.821762 210.236359 836.948669 -96.441017 -15.732359 -88.657906 862.969482
19 -8.415241 256.714722 896.627014 -96.573692 -19.958305 -88.214691 932.691406
[chest]
18 -84.512650 -34.090519 0.000000 0.202086 5.612495 143.248886 91.129311
19 -84.512650 -34.090519 0.000000 -1.657572 2.295474 142.822617 91.129311
[L_mid_tent01]
18 27.299149 22.179043 -249.918701 -0.173326 18.452728 81.191574 252.381683
19 27.299150 22.179039 -249.918701 -0.210072 18.258179 81.178871 252.381683
[R_mid_tent01]
18 23.228794 24.509907 226.238495 145.910599 -32.321411 66.634972 228.744751
19 23.228794 24.509907 226.238495 142.176437 -34.098564 66.699799 228.744751
[spine01]
18 -0.361383 -0.195265 0.000000 -0.000001 -0.000007 22.052340 0.410763
19 -0.361383 -0.195265 0.000000 -0.000001 -0.000007 22.052340 0.410763
[Bip01_Neck]
18 165.484543 71.581718 0.000119 176.643677 -1.657967 43.431911 180.302734
19 165.484543 71.581718 0.000119 176.643677 -1.657967 43.431911 180.302734
[L_humerus]
18 -13.983130 -135.272980 -120.471481 165.927750 52.335766 -101.143127 181.680161
19 -13.983130 -135.272980 -120.471481 168.185974 43.762619 -98.198051 181.680161
[R_humerus]
18 -13.983309 -135.273102 125.287651 -175.700165 -26.664116 -88.178177 184.909012
19 -13.983309 -135.273102 125.287651 -176.034622 -20.834047 -87.614464 184.909012
[weapon_bone]
18 235.964890 -300.705902 0.000000 0.000000 -89.951546 -128.212341 382.234833
19 235.964890 -300.705902 0.000000 0.000000 -89.951546 -128.212341 382.234833
[Bip01_Head]
18 213.348618 185.951920 8.281862 4.962490 2.797846 -43.898743 283.133057
19 213.355682 185.923645 8.520169 4.962490 2.797846 -43.898743 283.126892
[eye_left_bone]
18 -24.626970 125.451866 -64.772606 0.000000 -90.000000 -99.840431 143.318359
19 -24.626970 125.451866 -64.772606 0.000000 -90.000000 -99.840431 143.318359
[eye_right_bone]
18 -24.626970 125.451866 64.327362 0.000000 -89.965736 80.156380 143.117676
19 -24.626970 125.451866 64.327362 0.000000 -89.965736 80.156380 143.117676
[L_forearm]
18 322.776093 0.000000 -0.000119 0.000385 -0.002315 -108.861565 322.776093
19 322.776093 0.000000 -0.000119 0.000377 -0.002317 -108.508530 322.776093
[L_front_hand]
18 241.149185 -0.042021 -3.300071 -7.840765 -1.837791 -27.425455 241.171753
19 241.149185 -0.042021 -3.300071 -34.865017 -1.837707 -27.425165 241.171753
[L_weapon_bone]
18 156.183838 0.000000 0.000000 0.000014 0.000007 0.000001 156.183838
19 156.183838 0.000000 0.000000 0.000014 0.000007 0.000001 156.183838
[L_front_hand01_01]
18 86.095154 20.947098 -0.655860 -0.334039 -0.500941 71.473785 88.609184
19 86.095154 20.947098 -0.655860 -0.343298 -0.494452 72.684837 88.609184
[L_front_hand02_01]
18 86.935165 -11.437475 24.513514 148.678970 -58.017021 -54.691475 91.046425
19 86.935165 -11.437475 24.513514 150.381836 -58.634865 -56.693291 91.046425
[L_front_hand03_01]
18 86.637497 -14.123976 -20.424902 -148.599625 56.232182 -56.378220 90.126129
19 86.637497 -14.123976 -20.424902 -150.184586 56.852543 -58.280556 90.126129
[L_front_hand01_02]
18 71.020905 -0.000179 0.000030 0.000287 -0.002330 -104.070335 71.020905
19 71.020905 -0.000179 0.000030 0.000280 -0.002330 -103.706055 71.020905
[L_front_hand02_02]
18 71.020927 -0.000119 0.000060 0.000287 -0.002330 -104.070335 71.020927
19 71.020927 -0.000119 0.000060 0.000280 -0.002330 -103.706055 71.020927
[L_front_hand03_02]
18 71.020905 -0.000060 0.000060 0.000287 -0.002330 -104.070335 71.020905
19 71.020905 -0.000060 0.000060 0.000280 -0.002330 -103.706055 71.020905
[R_forearm]
18 322.776428 -0.000060 0.000030 0.206211 0.061901 -107.867157 322.776428
19 322.776428 -0.000060 0.000030 0.206395 0.061284 -107.524155 322.776428
[R_front_hand]
18 238.847015 -0.006795 2.210259 -94.684090 -10.644475 -26.313669 238.857239
19 238.847015 -0.006795 2.210259 -56.404640 -10.645410 -26.314463 238.857239
[R_weapon_bone]
18 155.664093 0.002503 -0.000030 0.003487 0.001180 -90.988930 155.664078
19 155.664093 0.002503 -0.000030 0.003487 0.001180 -90.988930 155.664078
[R_front_hand01_01]
18 87.624611 14.231146 22.918642 -153.536880 -59.633747 60.470901 91.683487
19 87.624611 14.231146 22.918642 -154.633499 -59.950619 61.746044 91.683487
[R_front_hand02_01]
18 89.356956 14.367283 -19.491137 153.567596 57.992992 62.531010 92.579636
19 89.356956 14.367283 -19.491137 154.602661 58.302849 63.744389 92.579636
[R_front_hand03_01]
18 87.286232 -22.307278 -0.143439 0.155617 -0.427176 -75.061508 90.091743
19 87.286232 -22.307278 -0.143439 0.162155 -0.423168 -75.767921 90.091743
[R_front_hand01_02]
18 71.020905 0.000060 0.000119 0.002332 -0.000269 103.156052 71.020905
19 71.020905 0.000060 0.000119 0.002332 -0.000266 103.035164 71.020905
[R_front_hand02_02]
18 71.020844 -0.000030 -0.000119 0.002332 -0.000269 103.156052 71.020836
19 71.020844 -0.000030 -0.000119 0.002332 -0.000266 103.035164 71.020836
[R_front_hand03_02]
18 71.020905 0.000000 0.000030 0.002332 -0.000269 103.156052 71.020905
19 71.020905 0.000000 0.000030 0.002332 -0.000266 103.035164 71.020905
[null_rope01_connect]
18 328.732483 0.000000 -0.000238 -160.788803 -65.629936 -174.273651 328.732483
19 328.732483 0.000000 -0.000238 -157.546082 -65.950890 -173.206161 328.732483
[Rope1_Seg01]
18 0.000000 0.000000 0.000000 -21.714111 -29.038969 153.957458 0.000000
19 0.000000 0.000000 0.000000 -19.830441 -14.800578 159.747330 0.000000
[Rope1_Seg02]
18 139.999863 -0.000179 0.000000 5.057266 5.235712 13.938390 139.999863
19 139.999863 -0.000179 0.000000 4.353648 3.965207 12.985677 139.999863
[Rope1_Seg03]
18 139.999924 0.000060 -0.000060 15.589941 10.945120 25.886799 139.999924
19 139.999924 0.000060 -0.000060 12.576187 7.913299 22.595125 139.999924
[Rope1_Seg04]
18 139.999924 -0.000060 -0.000119 20.227921 15.171003 23.261942 139.999924
19 139.999924 -0.000060 -0.000119 19.545893 11.409396 23.270121 139.999924
[Rope1_Seg05]
18 139.999832 0.000119 -0.000060 15.384062 23.838272 11.948609 139.999832
19 139.999832 0.000119 -0.000060 17.272732 20.375984 12.880183 139.999832
[Rope1_Seg06]
18 139.999954 0.000119 -0.000060 6.839799 29.821630 4.511578 139.999954
19 139.999954 0.000119 -0.000060 10.246496 29.927341 5.203424 139.999954
[Rope1_Seg07]
18 139.999985 0.000060 0.000000 0.082591 13.410202 1.196582 139.999985
19 139.999985 0.000060 0.000000 1.294070 15.430055 0.955621 139.999985
[Rope1_Seg09]
18 121.602913 0.000119 -0.000089 -89.793175 -1.359789 0.847147 121.602913
19 121.602913 0.000119 -0.000089 -89.793175 -1.359789 0.847147 121.602913
[L_mid_hand01]
18 103.859421 1.038730 8.195221 116.522400 -56.273491 -23.071604 104.187431
19 103.859421 1.038730 8.195221 119.055542 -59.298035 -26.066498 104.187431
[L_mid_hand02]
18 105.572853 -4.139662 -10.864139 -157.484573 39.487514 -56.304852 106.211075
19 105.572853 -4.139662 -10.864139 -160.167099 40.723133 -60.466198 106.211075
[L_mid_hand03]
18 104.641464 17.579376 -3.913581 -10.068325 15.918203 60.978344 106.179977
19 104.641464 17.579376 -3.913581 -9.090184 16.486181 64.488464 106.179977
[null_rope02_connect]
18 328.732849 0.000179 -0.000119 -83.045761 44.403469 50.234676 328.732849
19 328.732849 0.000179 -0.000119 -77.202736 40.220196 50.276562 328.732849
[Rope2_Seg01]
18 0.000054 0.000088 0.000000 122.712273 -57.727646 25.181927 0.000103
19 0.000055 0.000084 0.000000 111.762543 -49.922298 34.004822 0.000101
[Rope2_Seg02]
18 139.999741 -0.000060 -0.000119 -2.923977 -7.393127 -2.214002 139.999756
19 139.999741 -0.000060 -0.000119 -2.137714 -7.502400 -1.543651 139.999756
[Rope2_Seg03]
18 140.000107 0.000030 0.000000 -16.152710 -26.217197 -4.555506 140.000107
19 140.000107 0.000030 0.000000 -10.762245 -22.532326 -4.146396 140.000107
[Rope2_Seg04]
18 139.999802 0.000000 -0.000060 -43.722973 -34.588856 -58.931671 139.999802
19 139.999802 0.000000 -0.000060 -58.139412 -46.182041 -30.302315 139.999802
[Rope2_Seg05]
18 139.999985 -0.000060 0.000119 -17.588331 50.761868 -36.113430 139.999985
19 139.999985 -0.000060 0.000119 -28.571491 34.024933 -55.169228 139.999985
[Rope2_Seg06]
18 139.999893 -0.000030 -0.000119 0.857545 7.761842 -5.375278 139.999893
19 139.999893 -0.000030 -0.000119 0.320715 14.136606 -14.730920 139.999893
[Rope2_Seg07]
18 139.999893 0.000060 -0.000060 0.578142 3.010587 -2.165109 139.999893
19 139.999893 0.000060 -0.000060 0.892511 3.281482 -3.634827 139.999893
[Rope2_Seg09]
18 121.338966 0.000089 -0.000060 33.793236 -1.359788 -0.847141 121.338966
19 121.338966 0.000089 -0.000060 33.793236 -1.359788 -0.847141 121.338966
[R_mid_hand01]
18 104.680779 11.144459 -10.335981 -35.915806 33.394672 39.963581 105.778534
19 104.680779 11.144459 -10.335981 -34.395382 34.968521 42.666164 105.778534
[R_mid_hand02]
18 104.070427 2.443552 8.231699 69.545181 -44.771027 15.251744 104.424065
19 104.070427 2.443552 8.231699 68.534233 -47.330906 16.661503 104.424065
[R_mid_hand03]
18 106.028137 -11.221827 -5.996406 -170.436981 12.655030 -49.730145 106.788818
19 106.028137 -11.221827 -5.996406 -171.057114 13.096076 -52.505173 106.788818
[spine02]
18 129.756927 0.001550 0.000119 0.530016 -4.024931 -15.369446 129.756927
19 129.756927 0.001550 0.000119 0.524662 -4.025641 -15.286874 129.756927
[spine03]
18 78.613991 0.081547 -4.899006 1.998890 3.782508 18.002247 78.766525
19 78.613991 0.081551 -4.899006 1.995439 3.783727 17.947044 78.766525
[pelvis]
18 169.435242 0.051022 0.000000 -0.070208 -0.177785 17.188129 169.435257
19 169.435242 0.051022 0.000000 -0.070045 -0.177849 17.083111 169.435257
[null_rope03_connect]
18 -1.257226 -2.466202 137.391083 -177.605133 -85.087776 -118.459785 137.418976
19 -1.257226 -2.466202 137.391083 -178.109863 -85.087250 -113.645340 137.418976
[null_rope04_connect]
18 -1.259640 -2.480268 -137.844437 -177.605133 -85.087776 -118.459785 137.872513
19 -1.259640 -2.480268 -137.844437 -178.109863 -85.087250 -113.645340 137.872513
[Rope3_Seg01]
18 -0.000027 -0.000152 0.000000 6.559100 -64.700294 -55.593643 0.000154
19 -0.000028 -0.000158 0.000000 2.723462 -66.843452 -51.106087 0.000161
[Rope3_Seg02]
18 139.999924 -0.000119 0.000060 0.203465 -1.754272 8.509011 139.999924
19 139.999924 -0.000119 0.000060 0.099669 -2.437591 9.136085 139.999924
[Rope3_Seg03]
18 139.999924 -0.000119 0.000119 -2.219596 -3.628700 18.377262 139.999924
19 139.999924 -0.000119 0.000119 -2.652507 -4.756172 18.465378 139.999924
[Rope3_Seg04]
18 139.999924 0.000119 0.000000 -18.717813 -7.056979 39.074543 139.999924
19 139.999924 0.000119 0.000000 -16.807463 -8.197051 35.530636 139.999924
[Rope3_Seg05]
18 139.999924 -0.000238 0.000060 -29.350744 -14.291230 25.406576 139.999924
19 139.999924 -0.000238 0.000060 -22.942722 -13.803097 21.750275 139.999924
[Rope3_Seg06]
18 139.999893 -0.000119 -0.000060 -19.159592 -19.146749 8.684725 139.999893
19 139.999893 -0.000119 -0.000060 -12.678710 -14.948656 5.732380 139.999893
[Rope3_Seg07]
18 139.999771 0.000060 -0.000119 -8.991214 -15.276280 2.165877 139.999771
19 139.999771 0.000060 -0.000119 -7.295051 -11.967806 2.800441 139.999771
[Rope3_Seg08]
18 139.999985 -0.000060 0.000000 -2.927352 -7.899081 0.055044 139.999985
19 139.999985 -0.000060 0.000000 -3.004415 -6.899109 0.956004 139.999985
[Rope3_Seg09]
18 90.185997 -0.000179 -0.000060 89.793228 -1.359877 -0.847183 90.185997
19 90.185997 -0.000179 -0.000060 89.793228 -1.359877 -0.847183 90.185997
[R_rear_hand01]
18 103.366196 -6.073594 -10.757982 -166.511459 20.844780 -45.419292 104.101845
19 103.366196 -6.073594 -10.757982 -167.736008 21.565809 -48.800846 104.101845
[R_rear_hand02]
18 100.509819 12.039542 -7.992327 -28.715416 27.221781 42.882874 101.543350
19 100.509819 12.039542 -7.992327 -27.197792 28.737715 46.115417 101.543350
[R_rear_hand03]
18 101.539970 5.215704 5.435467 81.812386 -45.906315 9.761456 101.819031
19 101.539970 5.215704 5.435467 81.295570 -49.108288 10.466791 101.819031
[Rope4_Seg01]
18 0.000010 0.000038 -0.000114 -55.545238 -28.801029 -167.957642 0.000121
19 0.000010 0.000038 -0.000114 -55.288795 -33.354462 -166.566452 0.000121
[Rope4_Seg02]
18 139.999985 0.000060 0.000119 -7.623247 0.463228 9.593137 139.999985
19 139.999985 0.000060 0.000119 -6.347296 0.558731 9.487086 139.999985
[Rope4_Seg03]
18 139.999924 0.000000 -0.000238 -13.215987 -1.144173 13.503301 139.999924
19 139.999924 0.000000 -0.000238 -11.091030 -0.693280 13.341119 139.999924
[Rope4_Seg04]
18 139.999985 0.000000 0.000119 -14.527379 -11.988232 11.573347 139.999985
19 139.999985 0.000000 0.000119 -12.796597 -10.778822 11.564915 139.999985
[Rope4_Seg05]
18 139.999802 -0.000060 -0.000119 -12.929071 -7.462982 14.346665 139.999802
19 139.999802 -0.000060 -0.000119 -12.417070 -5.649235 15.275455 139.999802
[Rope4_Seg06]
18 139.999924 0.000000 0.000060 -28.738691 0.979918 34.765965 139.999924
19 139.999924 0.000000 0.000060 -29.998827 2.920029 36.244564 139.999924
[Rope4_Seg07]
18 139.999802 0.000000 0.000000 -22.302036 -9.546348 21.737139 139.999802
19 139.999802 0.000000 0.000000 -23.304037 -9.324522 21.650795 139.999802
[Rope4_Seg08]
18 139.999924 0.000000 0.000119 -6.810300 -6.077483 4.894545 139.999924
19 139.999924 0.000000 0.000119 -7.097082 -6.046041 4.898560 139.999924
[Rope4_Seg09]
18 90.185791 0.000060 0.000060 -135.617828 2.228885 0.850567 90.185791
19 90.185791 0.000060 0.000060 -135.617828 2.228885 0.850567 90.185791
[L_rear_hand01]
18 101.696655 -8.392275 -7.654577 -21.250181 -33.196430 122.367828 102.329041
19 101.696655 -8.392275 -7.654577 -19.499575 -34.171795 119.209053 102.329041
[L_rear_hand02]
18 102.726799 -1.568258 5.773216 78.649612 59.766773 166.297348 102.900848
19 102.726799 -1.568258 5.773216 77.604698 62.517105 165.103577 102.900848
[L_rear_hand03]
18 104.552910 9.721220 -10.420293 -172.167084 -23.462944 -119.660843 105.519653
19 104.552910 9.721220 -10.420293 -173.384872 -23.818933 -116.619850 105.519653
